# Blender 5.0.1
# www.blender.org
o Sphere
v -0.031076 0.742676 0.108683
v 0.060003 0.892711 0.021369
v 0.149827 0.998368 -0.113071
v 0.132734 0.695587 0.197959
v 0.226011 0.843150 0.111332
v 0.317517 0.955629 -0.030354
v 0.323247 0.656081 0.241531
v 0.403862 0.776922 0.119149
v 0.476793 0.867281 -0.041887
v 0.533126 0.622230 0.194531
v 0.572707 0.673688 0.022075
v 0.595289 0.696754 -0.166041
v 0.705347 0.526230 0.089802
v 0.684054 0.481918 -0.088900
v 0.641902 0.419593 -0.260011
v 0.828976 0.373739 0.043151
v 0.756329 0.251092 -0.089461
v 0.672054 0.138376 -0.204200
v 0.940045 0.234826 0.098072
v 0.851062 0.085581 0.007216
v 0.748809 -0.044886 -0.081267
v 1.034941 0.112941 0.211855
v 0.947145 -0.039421 0.125211
v 0.835740 -0.178527 0.028571
v -1.461074 0.240585 0.047942
v -1.351009 0.096339 -0.032586
v -1.194208 -0.020897 -0.022651
v -1.371993 0.372019 -0.060546
v -1.249867 0.218720 -0.147577
v -1.095010 0.099132 -0.135432
v -1.238913 0.514813 -0.079194
v -1.122368 0.380254 -0.189212
v -0.974416 0.257557 -0.210227
v -1.004485 0.602644 -0.037005
v -0.886582 0.539295 -0.157343
v -0.767938 0.462242 -0.269234
v -0.686124 0.656290 -0.011349
v -0.588677 0.691658 -0.176195
v -0.510530 0.714365 -0.341615
v -0.400123 0.715834 -0.037409
v -0.309859 0.829344 -0.179999
v -0.235027 0.891606 -0.330381
v -0.194244 0.758449 0.012808
v -0.107227 0.900093 -0.093441
v -0.026024 0.989586 -0.228970
vn -0.2411 0.5967 0.7654
vn -0.0796 0.8070 0.5852
vn 0.0570 0.5901 0.8053
vn 0.3254 0.6943 0.6420
vn 0.4632 0.6699 0.5803
vn 0.7744 0.5082 0.3769
vn 0.7305 0.6809 0.0519
vn 0.9314 0.3528 -0.0893
vn 0.8767 0.1253 -0.4644
vn 0.7614 0.4470 -0.4695
vn 0.7133 0.1403 -0.6866
vn 0.7580 -0.0373 -0.6511
vn 0.7190 -0.0974 -0.6881
vn 0.7461 -0.0464 -0.6642
vn -0.6809 -0.1250 -0.7216
vn -0.3192 -0.4954 -0.8079
vn -0.4529 0.2165 -0.8649
vn -0.1900 -0.2023 -0.9607
vn -0.2101 0.6256 -0.7513
vn -0.2692 0.2581 -0.9279
vn -0.2979 0.9017 -0.3135
vn -0.5566 0.6465 -0.5217
vn -0.3065 0.9166 0.2567
vn -0.4939 0.8695 -0.0053
vn -0.4522 0.8661 0.2129
vn -0.3847 0.7675 0.5129
vn -0.3705 0.6600 0.6536
vn -0.2933 0.8533 0.4310
vt 0.500000 0.497248
vt 0.500000 0.979622
vt 0.428579 0.979622
vt 0.428579 0.497248
vt 0.500000 0.014874
vt 0.428579 0.014874
vt 0.357158 0.979622
vt 0.357158 0.497248
vt 0.357158 0.014874
vt 0.285737 0.979622
vt 0.285737 0.497248
vt 0.285737 0.014874
vt 0.214316 0.979622
vt 0.214316 0.497248
vt 0.214316 0.014874
vt 0.142895 0.497248
vt 0.142895 0.014874
vt 0.142895 0.979622
vt 0.071474 0.979622
vt 0.071474 0.497248
vt 0.071474 0.014874
vt 0.000053 0.497248
vt 0.000053 0.014874
vt 0.000053 0.979622
vt 0.999946 0.497248
vt 0.999946 0.979622
vt 0.928526 0.979622
vt 0.928525 0.497248
vt 0.999946 0.014874
vt 0.928526 0.014874
vt 0.857105 0.979622
vt 0.857105 0.497248
vt 0.857105 0.014874
vt 0.785684 0.979622
vt 0.785684 0.497248
vt 0.785684 0.014874
vt 0.714263 0.979622
vt 0.714263 0.497248
vt 0.714263 0.014874
vt 0.642842 0.979622
vt 0.642842 0.497248
vt 0.642842 0.014874
vt 0.571421 0.497248
vt 0.571421 0.014874
vt 0.571421 0.979622
s 0
f 2/1/1 1/2/1 4/3/1 5/4/1
f 3/5/2 2/1/2 5/4/2 6/6/2
f 5/4/3 4/3/3 7/7/3 8/8/3
f 6/6/4 5/4/4 8/8/4 9/9/4
f 8/8/5 7/7/5 10/10/5 11/11/5
f 9/9/6 8/8/6 11/11/6 12/12/6
f 11/11/7 10/10/7 13/13/7 14/14/7
f 12/12/8 11/11/8 14/14/8 15/15/8
f 15/15/9 14/14/9 17/16/9 18/17/9
f 14/14/10 13/13/10 16/18/10 17/16/10
f 17/16/11 16/18/11 19/19/11 20/20/11
f 18/17/12 17/16/12 20/20/12 21/21/12
f 21/21/13 20/20/13 23/22/13 24/23/13
f 20/20/14 19/19/14 22/24/14 23/22/14
f 26/25/15 25/26/15 28/27/15 29/28/15
f 27/29/16 26/25/16 29/28/16 30/30/16
f 29/28/17 28/27/17 31/31/17 32/32/17
f 30/30/18 29/28/18 32/32/18 33/33/18
f 32/32/19 31/31/19 34/34/19 35/35/19
f 33/33/20 32/32/20 35/35/20 36/36/20
f 35/35/21 34/34/21 37/37/21 38/38/21
f 36/36/22 35/35/22 38/38/22 39/39/22
f 38/38/23 37/37/23 40/40/23 41/41/23
f 39/39/24 38/38/24 41/41/24 42/42/24
f 42/42/25 41/41/25 44/43/25 45/44/25
f 41/41/26 40/40/26 43/45/26 44/43/26
f 44/43/27 43/45/27 1/2/27 2/1/27
f 45/44/28 44/43/28 2/1/28 3/5/28
